A band of wandering dwarves shows up one or two at a time. The goal? To hire poor Bilbo for a quest that entails defeating a dragon and recovering a treasure. Along the way there are adventures with trolls and elves and The Battle of Five Armies. But most importantly of all he acquires a peculiar ring that has had and will have a great impact on the future of their world.

Starring: Martin Freeman, Richard Armitage, Rob Kazinsky, Aidan Turner, Graham McTavish, John Callen, Stephen Hunter, Mark Hadlow, Peter Hambleton
Director: Peter Jackson

 
http://stpicz.com/2317_vlcsnap_2013_03_01_16h10m30s61_4e09.png 
http://stpicz.com/0772_vlcsnap_2013_03_01_16h11m31s167_lvoj.png 
http://stpicz.com/1218_vlcsnap_2013_03_01_16h10m21s246_apg5.png 
http://stpicz.com/3937_vlcsnap_2013_03_01_16h17m12s20_0euf.png 
http://stpicz.com/2020_vlcsnap_2013_03_01_16h10m11s145_q3uy.png 
http://stpicz.com/0834_vlcsnap_2013_03_01_16h15m40s103_f0sv.png 
http://stpicz.com/3845_vlcsnap_2013_03_01_16h16m44s228_prfa.png 
http://stpicz.com/3619_vlcsnap_2013_03_01_16h17m07s202_s8k8.png 
http://stpicz.com/7668_vlcsnap_2013_03_01_16h15m22s184_2on8.png 
http://stpicz.com/6912_vlcsnap_2013_03_01_16h13m32s229_x7fx.png
[http://stpicz.com/9668_vlcsnap_2013_03_01_16h13m43s205_a0ff.png

General
Unique ID: 176102693907576798397771754227492779828 (0x847C252871D3B5FC9F6FF0578C70F734)
Complete name: D:The Hobbit - An Unexpected Journey (2012) 720p MKV x264 AC3 BRrip [Pioneer].mkv
Format: Matroska
Format version: Version 4 / Version 2
File size: 3.82 GiB
Duration: 2h 49mn
Overall bit rate: 3 222 Kbps
Encoded date: UTC 2013-02-28 21:36:13
Writing application: mkvmerge v6.0.0 ('Coming Up For Air') built on Jan 20 2013 09:52:00
Writing library: libebml v1.3.0 + libmatroska v1.4.0

Video
ID: 1
Format: AVC
Format/Info: Advanced Video Codec
Format profile: High@L3.1
Format settings, CABAC: Yes
Format settings, ReFrames: 5 frames
Codec ID: V_MPEG4/ISO/AVC
Duration: 2h 49mn
Bit rate: 2 966 Kbps
Width: 1 280 pixels
Height: 528 pixels
Display aspect ratio: 2.40:1
Original display aspect ratio: 2.40:1
Frame rate mode: Constant
Frame rate: 23.976 fps
Color space: YUV
Chroma subsampling: 4:2:0
Bit depth: 8 bits
Scan type: Progressive
Bits/(Pixel*Frame): 0.183
Stream size: 3.51 GiB (92%)
Writing library: x264 core 120
Language: English
Default: Yes
Forced: No
Color primaries: BT.709
Transfer characteristics: BT.709
Matrix coefficients: BT.709

Audio
ID: 2
Format: AC-3
Format/Info: Audio Coding 3
Mode extension: CM (complete main)
Format settings, Endianness: Big
Codec ID: A_AC3
Duration: 2h 49mn
Bit rate mode: Constant
Bit rate: 192 Kbps
Channel(s): 6 channels
Channel positions: Front: L C R, Side: L R, LFE
Sampling rate: 48.0 KHz
Bit depth: 16 bits
Compression mode: Lossy
Stream size: 233 MiB (6%)
Language: English
Default: Yes
Forced: No
